<svg height="464pt" viewBox="0 0 464 464" width="464pt" xmlns="http://www.w3.org/2000/svg"><path d="m0 288h464v176h-464zm0 0" fill="#a8a8a8"/><path d="m216 360h-48v-16c0-13.253906 10.746094-24 24-24s24 10.746094 24 24zm0 0" fill="#eed5b0"/><path d="m136 360h-48v-16c0-13.253906 10.746094-24 24-24s24 10.746094 24 24zm0 0" fill="#eed5b0"/><path d="m376 360h-48v-16c0-13.253906 10.746094-24 24-24s24 10.746094 24 24zm0 0" fill="#eed5b0"/><path d="m296 360h-48v-16c0-13.253906 10.746094-24 24-24s24 10.746094 24 24zm0 0" fill="#eed5b0"/><path d="m0 0h464v232h-464zm0 0" fill="#1f6c8c"/><path d="m232 432h-80v-64c0-8.835938 7.164062-16 16-16h48c8.835938 0 16 7.164062 16 16zm0 0" fill="#c7463b"/><path d="m152 432h-80v-64c0-8.835938 7.164062-16 16-16h48c8.835938 0 16 7.164062 16 16zm0 0" fill="#c7463b"/><path d="m392 432h-80v-64c0-8.835938 7.164062-16 16-16h48c8.835938 0 16 7.164062 16 16zm0 0" fill="#c7463b"/><path d="m312 432h-80v-64c0-8.835938 7.164062-16 16-16h48c8.835938 0 16 7.164062 16 16zm0 0" fill="#c7463b"/><path d="m0 256h464v32h-464zm0 0" fill="#9c775c"/><path d="m96 32h272v192h-272zm0 0" fill="#9c9c9c"/><path d="m96 216h272v8h-272zm0 0" fill="#787d82"/><path d="m112.910156 32h-16.910156v28.136719c6.125-9.078125 11.769531-18.46875 16.910156-28.136719zm0 0" fill="#787d82"/><path d="m0 104h40v48h-40zm0 0" fill="#fbb540"/><path d="m0 144h40l1.144531 2.863281c9.816407 24.53125 14.855469 50.714844 14.855469 77.136719h-56zm0 0" fill="#c7463b"/><path d="m368 60.136719v-28.136719h-16.910156c5.140625 9.667969 10.785156 19.058594 16.910156 28.136719zm0 0" fill="#787d82"/><path d="m424 104h40v56h-40zm0 0" fill="#fbb540"/><path d="m464 144h-40l-1.144531 2.863281c-9.816407 24.53125-14.855469 50.714844-14.855469 77.136719h56zm0 0" fill="#c7463b"/><path d="m128 64h208v128h-208zm0 0" fill="#d9d9d9"/><path d="m124.800781 32c9.734375 24.152344 33.15625 39.976562 59.199219 40h96c26.042969-.023438 49.464844-15.847656 59.199219-40zm0 0" fill="#787d82"/><path d="m0 224h464v32h-464zm0 0" fill="#ae8567"/><g fill="#d9c2a0"><path d="m256 424h-48v-16c0-13.253906 10.746094-24 24-24s24 10.746094 24 24zm0 0"/><path d="m176 424h-48v-16c0-13.253906 10.746094-24 24-24s24 10.746094 24 24zm0 0"/><path d="m416 424h-48v-16c0-13.253906 10.746094-24 24-24s24 10.746094 24 24zm0 0"/><path d="m336 424h-48v-16c0-13.253906 10.746094-24 24-24s24 10.746094 24 24zm0 0"/><path d="m96 424h-48v-16c0-13.253906 10.746094-24 24-24s24 10.746094 24 24zm0 0"/></g><path d="m208 416h48c8.835938 0 16 7.164062 16 16v32h-80v-32c0-8.835938 7.164062-16 16-16zm0 0" fill="#a83b32"/><path d="m128 416h48c8.835938 0 16 7.164062 16 16v32h-80v-32c0-8.835938 7.164062-16 16-16zm0 0" fill="#a83b32"/><path d="m368 416h48c8.835938 0 16 7.164062 16 16v32h-80v-32c0-8.835938 7.164062-16 16-16zm0 0" fill="#a83b32"/><path d="m288 416h48c8.835938 0 16 7.164062 16 16v32h-80v-32c0-8.835938 7.164062-16 16-16zm0 0" fill="#a83b32"/><path d="m48 416h48c8.835938 0 16 7.164062 16 16v32h-80v-32c0-8.835938 7.164062-16 16-16zm0 0" fill="#a83b32"/><path d="m280 64h-96c-35.347656 0-64-28.652344-64-64h224c0 35.347656-28.652344 64-64 64zm0 0" fill="#b94137"/><path d="m40 112h-40v-112h120c-15.742188 38.488281-40.945312 80.382812-73.265625 106.550781zm0 0" fill="#c7463b"/><path d="m424 112h40v-112h-120c15.742188 38.488281 40.945312 80.382812 73.265625 106.550781zm0 0" fill="#c7463b"/></svg>